# xmcd
#
# Track frame offsets:
#	150
#	12764
#	28015
#	42610
#	55084
#	69682
#	83428
#	95995
#	109533
#	119602
#	131792
#	146123
#	161771
#	175725
#	191777
#	205438
#	219113
#	236260
#	251212
#	267059
#	279957
#	291824
#	304992
#	318204
#
# Disc length: 4431 seconds
#
# Revision: 1
# Processed by: cddbd v1.5.2PL0 Copyright (c) Steve Scherf et al.
# Submitted via: audiograbber 1.83.01
#
DISCID=66114d18
DTITLE=Jonny Hill - Ruf Teddybär eins-vier 
DYEAR=2006
DGENRE=Country
TTITLE0=Heut geht es an Bord
TTITLE1=Auf St.Pauli spielt der Jonny mit der Mundharmonika
TTITLE2=Die kleine Hafenkneipe
TTITLE3=Die Möwen von Helgoland
TTITLE4=Ein Glas Wein und noch eins
TTITLE5=Der Wind weht heim
TTITLE6=Ein Köm und ein Bier und ein Schifferklavier
TTITLE7=Ay,ay,ay,paloma
TTITLE8=Das ist die Liebe der Matrosen
TTITLE9=Er ist kein Käpt'n,er ist kein Steuermann
TTITLE10=Kleine weiße Möve
TTITLE11=Nimm mich mit, Kapitän,auf die Reise
TTITLE12=Schön ist die Liebe im Hafen
TTITLE13=Sehnsucht nach dir und Samoa
TTITLE14=Unser Käpten,der kann jodeln
TTITLE15=Vaya con Diòs
TTITLE16=Eine Heimat und doch kein Zuhaus
TTITLE17=Rolling Home
TTITLE18=Die Reise endet nirgendwo
TTITLE19=Die letzte Reise
TTITLE20=Im Krug zum grünen Kranze
TTITLE21=Es zogen drei Burschen wohl über den Rhein
TTITLE22=Abschied
TTITLE23=Wer wie ich viel unterwegs war
EXTD=Reader's Digest
EXTT0=
EXTT1=
EXTT2=
EXTT3=
EXTT4=
EXTT5=
EXTT6=
EXTT7=
EXTT8=
EXTT9=
EXTT10=
EXTT11=
EXTT12=
EXTT13=
EXTT14=
EXTT15=
EXTT16=
EXTT17=
EXTT18=
EXTT19=
EXTT20=
EXTT21=
EXTT22=
EXTT23=
PLAYORDER=
